HIERARCHY
ROOT hip
{
  OFFSET 0 0 0
  CHANNELS 6 Xposition Yposition Zposition Zrotation Yrotation Xrotation
  JOINT abdomen
  {
    OFFSET 0 20.6881 -0.73152
    CHANNELS 3 Zrotation Xrotation Yrotation
    JOINT chest
    {
      OFFSET 0 11.7043 -0.48768
      CHANNELS 3 Zrotation Xrotation Yrotation
      JOINT neck
      {
        OFFSET 0 22.1894 -2.19456
        CHANNELS 3 Zrotation Xrotation Yrotation
        JOINT head
        {
          OFFSET -0.24384 7.07133 1.2192
          CHANNELS 3 Zrotation Xrotation Yrotation
          JOINT leftEye
          {
            OFFSET 4.14528 8.04674 8.04672
            CHANNELS 3 Zrotation Xrotation Yrotation
            End Site
            {
              OFFSET 1 0 0
            }
          }
          JOINT rightEye
          {
            OFFSET -3.6576 8.04674 8.04672
            CHANNELS 3 Zrotation Xrotation Yrotation
            End Site
            {
              OFFSET 1 0 0
            }
          }
        }
      }
      JOINT rCollar
      {
        OFFSET -2.68224 19.2634 -4.8768
        CHANNELS 3 Zrotation Xrotation Yrotation
        JOINT rShldr
        {
          OFFSET -8.77824 -1.95073 1.46304
          CHANNELS 3 Zrotation Xrotation Yrotation
          JOINT rForeArm
          {
            OFFSET -28.1742 -1.7115 0.48768
            CHANNELS 3 Zrotation Xrotation Yrotation
            JOINT rHand
            {
              OFFSET -22.5879 0.773209 7.07136
              CHANNELS 3 Zrotation Xrotation Yrotation
              JOINT rThumb1
              {
                OFFSET -1.2192 -0.487915 3.41376
                CHANNELS 3 Zrotation Xrotation Yrotation
                JOINT rThumb2
                {
                  OFFSET -3.37035 -0.52449 3.41376
                  CHANNELS 3 Zrotation Xrotation Yrotation
                  End Site
                  {
                    OFFSET -1.78271 -1.18214 1.43049
                  }
                }
              }
              JOINT rIndex1
              {
                OFFSET -7.75947 0.938293 5.60832
                CHANNELS 3 Zrotation Xrotation Yrotation
                JOINT rIndex2
                {
                  OFFSET -2.54057 -0.884171 1.56538
                  CHANNELS 3 Zrotation Xrotation Yrotation
                  End Site
                  {
                    OFFSET -1.62519 -0.234802 1.16502
                  }
                }
              }
              JOINT rMid1
              {
                OFFSET -8.24714 1.18213 3.41376
                CHANNELS 3 Zrotation Xrotation Yrotation
                JOINT rMid2
                {
                  OFFSET -3.10165 -0.590103 1.0647
                  CHANNELS 3 Zrotation Xrotation Yrotation
                  End Site
                  {
                    OFFSET -2.48547 -0.328903 0.83742
                  }
                }
              }
              JOINT rRing1
              {
                OFFSET -8.82822 0.546677 1.51678
                CHANNELS 3 Zrotation Xrotation Yrotation
                JOINT rRing2
                {
                  OFFSET -2.60934 -0.819778 -0.0198488
                  CHANNELS 3 Zrotation Xrotation Yrotation
                  End Site
                  {
                    OFFSET -2.33842 -0.294052 0.168128
                  }
                }
              }
              JOINT rPinky1
              {
                OFFSET -8.27202 -0.0477905 -0.4584
                CHANNELS 3 Zrotation Xrotation Yrotation
                JOINT rPinky2
                {
                  OFFSET -1.82734 -0.647385 -0.700984
                  CHANNELS 3 Zrotation Xrotation Yrotation
                  End Site
                  {
                    OFFSET -1.69225 -0.51767 -0.607171
                  }
                }
              }
            }
          }
        }
      }
      JOINT lCollar
      {
        OFFSET 2.68224 19.2634 -4.8768
        CHANNELS 3 Zrotation Xrotation Yrotation
        JOINT lShldr
        {
          OFFSET 8.77824 -1.95073 1.46304
          CHANNELS 3 Zrotation Xrotation Yrotation
          JOINT lForeArm
          {
            OFFSET 28.1742 -1.7115 0.48768
            CHANNELS 3 Zrotation Xrotation Yrotation
            JOINT lHand
            {
              OFFSET 22.5879 0.773209 7.07136
              CHANNELS 3 Zrotation Xrotation Yrotation
              JOINT lThumb1
              {
                OFFSET 1.2192 -0.487915 3.41376
                CHANNELS 3 Zrotation Xrotation Yrotation
                JOINT lThumb2
                {
                  OFFSET 3.37035 -0.52449 3.41376
                  CHANNELS 3 Zrotation Xrotation Yrotation
                  End Site
                  {
                    OFFSET 1.78271 -1.18214 1.43049
                  }
                }
              }
              JOINT lIndex1
              {
                OFFSET 7.75947 0.938293 5.60832
                CHANNELS 3 Zrotation Xrotation Yrotation
                JOINT lIndex2
                {
                  OFFSET 2.54057 -0.884171 1.56538
                  CHANNELS 3 Zrotation Xrotation Yrotation
                  End Site
                  {
                    OFFSET 1.62519 -0.234802 1.16502
                  }
                }
              }
              JOINT lMid1
              {
                OFFSET 8.24714 1.18213 3.41376
                CHANNELS 3 Zrotation Xrotation Yrotation
                JOINT lMid2
                {
                  OFFSET 3.10165 -0.590103 1.0647
                  CHANNELS 3 Zrotation Xrotation Yrotation
                  End Site
                  {
                    OFFSET 2.48547 -0.328903 0.83742
                  }
                }
              }
              JOINT lRing1
              {
                OFFSET 8.82822 0.546677 1.51678
                CHANNELS 3 Zrotation Xrotation Yrotation
                JOINT lRing2
                {
                  OFFSET 2.60934 -0.819778 -0.0198488
                  CHANNELS 3 Zrotation Xrotation Yrotation
                  End Site
                  {
                    OFFSET 2.33842 -0.294052 0.168128
                  }
                }
              }
              JOINT lPinky1
              {
                OFFSET 8.27202 -0.0477905 -0.4584
                CHANNELS 3 Zrotation Xrotation Yrotation
                JOINT lPinky2
                {
                  OFFSET 1.82734 -0.647385 -0.700984
                  CHANNELS 3 Zrotation Xrotation Yrotation
                  End Site
                  {
                    OFFSET 1.69225 -0.51767 -0.607171
                  }
                }
              }
            }
          }
        }
      }
    }
  }
  JOINT rButtock
  {
    OFFSET -8.77824 4.35084 1.2192
    CHANNELS 3 Zrotation Xrotation Yrotation
    JOINT rThigh
    {
      OFFSET 0 -1.70687 -2.19456
      CHANNELS 3 Zrotation Xrotation Yrotation
      JOINT rShin
      {
        OFFSET 0 -36.8199 0.73152
        CHANNELS 3 Zrotation Xrotation Yrotation
        JOINT rFoot
        {
          OFFSET 0.73152 -45.1104 -5.12064
          CHANNELS 3 Zrotation Xrotation Yrotation
          End Site
          {
            OFFSET -1.1221 -3.69964 12.103
          }
        }
      }
    }
  }
  JOINT lButtock
  {
    OFFSET 8.77824 4.35084 1.2192
    CHANNELS 3 Zrotation Xrotation Yrotation
    JOINT lThigh
    {
      OFFSET 0 -1.70687 -2.19456
      CHANNELS 3 Zrotation Xrotation Yrotation
      JOINT lShin
      {
        OFFSET 0 -36.8199 0.73152
        CHANNELS 3 Zrotation Xrotation Yrotation
        JOINT lFoot
        {
          OFFSET -0.73152 -45.1104 -5.12064
          CHANNELS 3 Zrotation Xrotation Yrotation
          End Site
          {
            OFFSET 1.1221 -3.69964 12.103
          }
        }
      }
    }
  }
}
MOTION
Frames:	6
Frame Time:	0.00833333
-163.544 85.4571 10.6652 0.0 0.0 0.0 1.92989 -0.00172182 0.0523842 0.532096 0.00507101 0.0921249 -7.81022e-16 -1.59028e-15 -4.96962e-16 -2.18663e-15 -6.36111e-15 -1.64153e-15 -0.0 0.0 0.0 -0.0 0.0 0.0 -3.50136e-16 -1.61318e-16 -4.96962e-17 -4.73696e-15 -3.70236e-15 -5.1684e-15 -1.23694e-13 -8.44835e-14 -1.145e-13 -1.23671e-12 -6.47442e-13 -1.14182e-12 -2.94228e-12 -1.58171e-12 -2.71301e-12 -5.09167e-12 -2.7321e-12 -4.70006e-12 -2.93565e-12 -1.57795e-12 -2.72892e-12 7.73091 5.47488 0.417314 -2.94062e-12 -1.58084e-12 -2.71301e-12 2.90554 0.965183 0.102902 -2.92619e-12 -1.58103e-12 -2.71619e-12 10.2786 0.731801 0.0259123 -2.94201e-12 -1.58193e-12 -2.70665e-12 2.22167 -0.733487 -0.20892 -4.45028e-16 -1.61513e-16 -4.96962e-16 -9.18195e-15 -3.69615e-15 -6.75868e-15 -9.2733e-14 -1.55847e-13 -1.04958e-13 -1.26144e-12 -5.71829e-13 -1.14182e-12 -2.93136e-12 -1.57296e-12 -2.72255e-12 -5.04913e-12 -2.71301e-12 -4.68973e-12 -2.93923e-12 -1.5704e-12 -2.71619e-12 -7.73091 5.47488 -0.417314 -2.93202e-12 -1.57259e-12 -2.71937e-12 -2.90554 0.965183 -0.102902 -2.94352e-12 -1.57229e-12 -2.72096e-12 -10.2786 0.731801 -0.0259123 -2.93366e-12 -1.57358e-12 -2.7321e-12 -2.22167 -0.733487 0.20892 -2.03217e-16 0.0 -3.88251e-19 1.95789 -7.26116 -0.191914 0.00413016 7.58528 0.107145 -0.519697 -0.330663 0.0521522 2.03217e-16 0.0 3.88251e-19 0.976685 -1.92613 0.000869734 0.00898703 -2.0786 0.0740617 0.487866 3.99809 -0.136736
-156.914 85.4711 1.98147 33.3804 86.2443 33.8726 0.798758 0.430569 0.82455 1.05867 -0.578787 0.347075 1.19748 -1.91382 0.522786 -0.863191 0.222378 0.60255 -0.0 0.0 0.0 -0.0 0.0 0.0 -1.81567e-14 -1.96795e-12 1.51861e-14 21.8779 10.5498 -0.0507636 -4.3686 -2.01542 6.78998 0.00489711 1.55238 0.217883 1.62895e-10 3.24256e-11 -2.07772e-10 2.79815e-10 5.60415e-11 -3.60833e-10 1.62906e-10 3.24291e-11 -2.07791e-10 7.73091 5.47488 0.417314 1.62897e-10 3.24265e-11 -2.07771e-10 2.90554 0.965183 0.102902 1.62909e-10 3.24263e-11 -2.07775e-10 10.2786 0.731801 0.0259123 1.62892e-10 3.24264e-11 -2.07767e-10 2.22167 -0.733487 -0.20892 -1.83129e-14 -1.96795e-12 1.47489e-14 -21.9166 10.8556 -0.879567 3.31709 -1.36354 -5.32648 -0.0401184 4.44554 -0.618007 -2.61142e-10 2.49109e-11 2.08668e-10 -4.48092e-10 4.20475e-11 3.64257e-10 -2.61152e-10 2.49121e-11 2.08676e-10 -7.73091 5.47488 -0.417314 -2.61143e-10 2.49101e-11 2.08671e-10 -2.90554 0.965183 -0.102902 -2.61152e-10 2.49095e-11 2.08668e-10 -10.2786 0.731801 -0.0259123 -2.61142e-10 2.49094e-11 2.08659e-10 -2.22167 -0.733487 0.20892 -2.03217e-16 0.0 -3.88251e-19 -0.444132 -4.52102 -1.33353 0.00479933 7.72921 0.111991 -0.510902 -4.51408 -0.670498 2.03217e-16 0.0 3.88251e-19 2.29959 1.15988 -0.528167 0.00561263 -2.5779 0.0534788 0.634125 0.889202 3.5012
-156.927 85.4602 1.95796 34.5097 86.106 35.0624 -0.410879 0.88851 1.64081 1.62118 -1.19683 0.616649 2.5022 -3.94009 1.07802 -1.78083 0.459784 1.24026 -0.0 0.0 0.0 -0.0 0.0 0.0 -3.85137e-14 -4.21889e-12 3.26193e-14 45.0276 21.7007 -0.108665 -8.46934 -4.05019 13.9917 -0.00278098 3.19278 0.448664 3.61222e-10 7.14951e-11 -4.35539e-10 6.20673e-10 1.23571e-10 -7.56491e-10 3.61238e-10 7.14984e-11 -4.35561e-10 7.73091 5.47488 0.417314 3.61224e-10 7.14962e-11 -4.35537e-10 2.90554 0.965183 0.102902 3.61234e-10 7.14959e-11 -4.3554e-10 10.2786 0.731801 0.0259123 3.61216e-10 7.14972e-11 -4.35534e-10 2.22167 -0.733487 -0.20892 -3.87353e-14 -4.21889e-12 3.21907e-14 -44.6961 22.3251 -1.92061 6.54983 -2.76599 -10.9677 0.0229459 9.13958 -1.28328 -5.5303e-10 5.76502e-11 4.57081e-10 -9.4879e-10 9.74764e-11 7.9765e-10 -5.53042e-10 5.76498e-11 4.57091e-10 -7.73091 5.47488 -0.417314 -5.53032e-10 5.7648e-11 4.57084e-10 -2.90554 0.965183 -0.102902 -5.53038e-10 5.76464e-11 4.5708e-10 -10.2786 0.731801 -0.0259123 -5.53027e-10 5.76478e-11 4.57073e-10 -2.22167 -0.733487 0.20892 -2.03217e-16 0.0 -3.88251e-19 -2.86643 -1.6265 -2.53652 0.00548853 7.88317 0.117146 -0.617421 -8.93422 -1.4467 2.03217e-16 0.0 3.88251e-19 3.76071 4.41954 -1.08592 0.00176882 -3.1034 0.0316842 1.21637 -2.37248 7.34699
-156.926 85.4571 1.98115 33.2784 86.3151 33.8151 -1.49846 1.29418 2.36942 2.1274 -1.74634 0.857321 3.69765 -5.73953 1.57538 -2.6036 0.66684 1.80776 -0.0 0.0 0.0 -0.0 0.0 0.0 -5.377e-14 -5.90353e-12 4.56576e-14 65.6981 31.6494 -0.175874 -11.7003 -5.70731 20.4632 -0.0208278 4.65686 0.655574 4.94569e-10 1.0044e-10 -6.17891e-10 8.49628e-10 1.73589e-10 -1.0731e-09 4.9459e-10 1.00443e-10 -6.17916e-10 7.73091 5.47488 0.417314 4.94571e-10 1.00441e-10 -6.17888e-10 2.90554 0.965183 0.102902 4.9458e-10 1.00441e-10 -6.17891e-10 10.2786 0.731801 0.0259123 4.94561e-10 1.00443e-10 -6.17887e-10 2.22167 -0.733487 -0.20892 -5.40486e-14 -5.90353e-12 4.52406e-14 -64.5924 32.533 -3.07424 9.20015 -3.94943 -16.0139 0.174074 13.3303 -1.89964 -7.77563e-10 7.78786e-11 6.31449e-10 -1.33418e-09 1.31568e-10 1.10215e-09 -7.77576e-10 7.7877e-11 6.3146e-10 -7.73091 5.47488 -0.417314 -7.77565e-10 7.78753e-11 6.31452e-10 -2.90554 0.965183 -0.102902 -7.77569e-10 7.78729e-11 6.31447e-10 -10.2786 0.731801 -0.0259123 -7.77558e-10 7.78754e-11 6.31442e-10 -2.22167 -0.733487 0.20892 -2.03217e-16 0.0 -3.88251e-19 -4.92115 0.953803 -3.60788 0.00606391 8.01708 0.121694 -0.816717 -12.873 -2.16397 2.03217e-16 0.0 3.88251e-19 5.11741 7.32922 -1.59898 -0.00221418 -3.57651 0.0122721 2.10696 -5.22948 10.8207
-156.919 85.461 2.01863 31.1055 86.373 31.6073 -2.25608 1.57008 2.87839 2.48185 -2.12468 1.02541 4.54496 -6.97372 1.92132 -3.17905 0.798313 2.1996 -0.0 0.0 0.0 -0.0 0.0 0.0 -5.62744e-14 -6.17239e-12 4.77083e-14 80.1268 38.5928 -0.246556 -13.7342 -6.74191 25.0208 -0.0397383 5.68039 0.800979 4.65469e-10 1.04074e-10 -6.86707e-10 7.98824e-10 1.79825e-10 -1.19208e-09 4.65491e-10 1.04076e-10 -6.86733e-10 7.73091 5.47488 0.417314 4.6547e-10 1.04075e-10 -6.86704e-10 2.90554 0.965183 0.102902 4.65478e-10 1.04075e-10 -6.86707e-10 10.2786 0.731801 0.0259123 4.65459e-10 1.04077e-10 -6.86704e-10 2.22167 -0.733487 -0.20892 -5.65892e-14 -6.17239e-12 4.73108e-14 -78.1399 39.6183 -4.10581 10.9207 -4.71993 -19.5398 0.336024 16.2688 -2.35059 -8.33708e-10 6.68298e-11 6.20701e-10 -1.43128e-09 1.12318e-10 1.08443e-09 -8.33723e-10 6.68278e-11 6.20714e-10 -7.73091 5.47488 -0.417314 -8.33711e-10 6.68263e-11 6.20704e-10 -2.90554 0.965183 -0.102902 -8.33715e-10 6.68234e-11 6.207e-10 -10.2786 0.731801 -0.0259123 -8.33702e-10 6.68262e-11 6.20695e-10 -2.22167 -0.733487 0.20892 -2.03217e-16 0.0 -3.88251e-19 -6.28753 2.75566 -4.3487 0.00640898 8.10086 0.124719 -1.01805 -15.6157 -2.68851 2.03217e-16 0.0 3.88251e-19 6.09383 9.36647 -1.98712 -0.0057902 -3.91864 -0.00115028 2.94089 -7.18062 13.3023
-156.921 85.4631 2.02384 30.8876 86.2745 31.4026 -2.53467 1.66692 3.07903 2.61591 -2.26266 1.0915 4.86851 -7.41189 2.04944 -3.39986 0.819467 2.34476 -0.0 0.0 0.0 -0.0 0.0 0.0 -3.92531e-14 -4.27788e-12 3.30161e-14 85.793 41.332 -0.30843 -14.5015 -7.12808 26.8526 -0.0486976 6.08941 0.859293 2.27504e-10 7.95843e-11 -6.4917e-10 3.8817e-10 1.37391e-10 -1.1254e-09 2.27523e-10 7.95854e-11 -6.49194e-10 7.73091 5.47488 0.417314 2.27506e-10 7.95847e-11 -6.49169e-10 2.90554 0.965183 0.102902 2.27512e-10 7.95833e-11 -6.49172e-10 10.2786 0.731801 0.0259123 2.27494e-10 7.9585e-11 -6.49168e-10 2.22167 -0.733487 -0.20892 -3.95773e-14 -4.27788e-12 3.265e-14 -83.3478 42.3617 -4.59068 11.563 -5.00437 -20.9142 0.414595 17.4577 -2.53841 -7.52828e-10 5.33532e-11 3.48417e-10 -1.29542e-09 9.00443e-11 6.12879e-10 -7.52843e-10 5.33521e-11 3.48431e-10 -7.73091 5.47488 -0.417314 -7.52831e-10 5.33509e-11 3.4842e-10 -2.90554 0.965183 -0.102902 -7.52836e-10 5.33476e-11 3.48417e-10 -10.2786 0.731801 -0.0259123 -7.52823e-10 5.33497e-11 3.48411e-10 -2.22167 -0.733487 0.20892 -2.03217e-16 0.0 -3.88251e-19 -6.78367 3.48076 -4.60227 0.00643175 8.10926 0.125545 -1.11887 -16.6931 -2.92416 2.03217e-16 0.0 3.88251e-19 6.48582 10.1912 -2.19839 -0.00862319 -4.08172 -0.00611462 3.33039 -7.94929 14.3465
